<?xml version="1.0" standalone="no"?>
<!DOCTYPE svg PUBLIC "-//W3C//DTD SVG 20010904//EN"
 "http://www.w3.org/TR/2001/REC-SVG-20010904/DTD/svg10.dtd">
<svg version="1.0" xmlns="http://www.w3.org/2000/svg"
 width="112.000000pt" height="112.000000pt" viewBox="0 0 112.000000 112.000000"
 preserveAspectRatio="xMidYMid meet">
<metadata>
Created by potrace 1.14, written by Peter Selinger 2001-2017
</metadata>
<g transform="translate(0.000000,112.000000) scale(0.100000,-0.100000)"
fill="#000000" stroke="none">
<path d="M865 1009 c-166 -26 -304 -165 -356 -359 -26 -99 -24 -280 6 -395 40
-156 32 -153 110 -34 64 99 67 105 55 134 -58 144 -57 279 2 418 26 59 38 77
91 129 54 54 93 72 158 72 46 1 62 -4 92 -27 20 -15 37 -24 37 -19 0 17 -69
71 -98 78 -15 3 -31 7 -37 8 -5 1 -32 -1 -60 -5z"/>
<path d="M611 969 c-134 -26 -263 -155 -315 -314 -26 -81 -24 -95 28 -178 27
-42 51 -79 55 -81 3 -2 4 21 2 52 -12 196 104 432 251 509 47 24 45 25 -21 12z"/>
<path d="M160 742 c0 -10 72 -122 78 -122 16 1 28 18 45 65 9 28 17 53 17 56
0 4 -31 6 -70 6 -38 0 -70 -2 -70 -5z"/>
<path d="M454 705 c-30 -75 -42 -123 -40 -173 0 -28 -2 -48 -5 -46 -4 2 -5
-26 -2 -64 4 -66 25 -123 61 -170 17 -22 18 -22 19 -2 1 11 -1 20 -5 20 -4 0
-8 17 -9 38 -1 20 -4 53 -8 72 -4 19 -7 46 -6 60 0 22 -1 22 -8 6 -11 -29 -25
-2 -16 32 7 25 8 25 15 7 16 -38 11 12 -6 61 -14 43 -14 48 1 63 9 9 15 12 14
6 -3 -17 1 -59 5 -54 2 2 7 20 10 39 3 19 12 58 21 85 19 63 19 64 -5 62 -13
-1 -25 -15 -36 -42z"/>
<path d="M682 711 c-33 -78 -22 -288 19 -338 9 -10 38 29 130 172 66 102 119
189 119 194 0 5 -57 9 -126 9 l-126 0 -16 -37z"/>
<path d="M245 610 c-3 -5 -1 -10 4 -10 6 0 11 5 11 10 0 6 -2 10 -4 10 -3 0
-8 -4 -11 -10z"/>
</g>
</svg>
